HIERARCHY
ROOT Hips
{
	OFFSET 15.585500 22.159004 44.358299
	CHANNELS 6 Xposition Yposition Zposition Zrotation Xrotation Yrotation
	JOINT Chest
	{
		OFFSET -0.128500 0.160400 6.566002
		CHANNELS 6 Xposition Yposition Zposition Zrotation Xrotation Yrotation
		JOINT Chest2
		{
			OFFSET 0.000000 0.000000 3.554802
			CHANNELS 6 Xposition Yposition Zposition Zrotation Xrotation Yrotation
			JOINT Neck
			{
				OFFSET 0.000000 0.000000 8.267998
				CHANNELS 6 Xposition Yposition Zposition Zrotation Xrotation Yrotation
				JOINT Head
				{
					OFFSET 0.000000 0.000002 2.173897
					CHANNELS 6 Xposition Yposition Zposition Zrotation Xrotation Yrotation
					End Site
					{
						OFFSET 0.000000 0.000000 7.718697
					}
				}
			}
			JOINT LeftCollar
			{
				OFFSET 2.057500 0.117599 5.946301
				CHANNELS 6 Xposition Yposition Zposition Zrotation Xrotation Yrotation
				JOINT LeftShoulder
				{
					OFFSET 4.957699 0.000000 0.000000
					CHANNELS 6 Xposition Yposition Zposition Zrotation Xrotation Yrotation
					JOINT LeftElbow
					{
						OFFSET 0.000000 0.000000 -8.465500
						CHANNELS 6 Xposition Yposition Zposition Zrotation Xrotation Yrotation
						JOINT LeftWrist
						{
							OFFSET 0.000000 -0.000002 -14.594898
							CHANNELS 6 Xposition Yposition Zposition Zrotation Xrotation Yrotation
							End Site
							{
								OFFSET 0.000000 0.000000 -2.173901
							}
						}
					}
				}
			}
			JOINT RightCollar
			{
				OFFSET -3.048500 -0.728800 6.604099
				CHANNELS 6 Xposition Yposition Zposition Zrotation Xrotation Yrotation
				JOINT RightShoulder
				{
					OFFSET -3.710299 0.000000 0.000000
					CHANNELS 6 Xposition Yposition Zposition Zrotation Xrotation Yrotation
					JOINT RightElbow
					{
						OFFSET 0.000000 0.000000 -10.450901
						CHANNELS 6 Xposition Yposition Zposition Zrotation Xrotation Yrotation
						JOINT RightWrist
						{
							OFFSET 0.000000 0.000000 -12.539200
							CHANNELS 6 Xposition Yposition Zposition Zrotation Xrotation Yrotation
							End Site
							{
								OFFSET 0.000000 -0.000002 -2.173901
							}
						}
					}
				}
			}
		}
	}
	JOINT LeftHip
	{
		OFFSET 2.442599 -0.601400 -2.767502
		CHANNELS 6 Xposition Yposition Zposition Zrotation Xrotation Yrotation
		JOINT LeftKnee
		{
			OFFSET 0.000000 -0.000002 -17.033703
			CHANNELS 6 Xposition Yposition Zposition Zrotation Xrotation Yrotation
			JOINT LeftAnkle
			{
				OFFSET 0.000000 -0.000002 -19.318800
				CHANNELS 6 Xposition Yposition Zposition Zrotation Xrotation Yrotation
				End Site
				{
					OFFSET 0.000000 -8.281900 0.000000
				}
			}
		}
	}
	JOINT RightHip
	{
		OFFSET -3.126200 -0.601400 -2.283501
		CHANNELS 6 Xposition Yposition Zposition Zrotation Xrotation Yrotation
		JOINT RightKnee
		{
			OFFSET 0.000000 -0.000002 -16.919401
			CHANNELS 6 Xposition Yposition Zposition Zrotation Xrotation Yrotation
			JOINT RightAnkle
			{
				OFFSET 0.000000 -0.000002 -18.035900
				CHANNELS 6 Xposition Yposition Zposition Zrotation Xrotation Yrotation
				End Site
				{
					OFFSET 0.000000 -9.230099 0.000000
				}
			}
		}
	}
}
MOTION
Frames: 8
Frame Time: 0.041667
26.490900 39.668602 9.381699 1.789431 -1.963721 11.087012 -0.128500 0.160399 6.566003 -3.686387 2.825935 0.478741 -0.000001 0.000003 3.554804 2.191717 -10.092429 -1.268661 -0.000002 0.000002 8.268000 -45.644662 8.690255 6.196492 -0.000000 0.000005 2.173900 -2.324798 -0.773010 -7.176271 2.057497 0.117598 5.946303 -27.564359 17.396881 -23.475176 4.957694 0.000003 0.000001 -5.718400 -15.500561 -154.042909 -0.000004 0.000002 -8.465492 -103.260316 -161.120010 -156.832277 -0.000005 -0.000001 -14.594906 -122.783005 -153.153783 -125.333807 -3.048502 -0.728799 6.604096 19.740772 -2.454667 -19.422235 -3.710295 -0.000007 -0.000002 37.763867 -11.762461 147.071936 0.000006 0.000005 -10.450903 -98.347757 -69.036649 -62.495029 -0.000005 -0.000003 -12.539190 304.808803 -12.171992 15.333143 2.442595 -0.601403 -2.767508 129.501411 -8.168672 99.903811 -0.000001 -0.000005 -17.033707 -177.218547 53.604103 167.253820 -0.000003 0.000003 -19.318802 -133.130441 118.475915 388.461545 -3.126199 -0.601408 -2.283500 -134.165583 -20.005651 -99.518035 0.000002 0.000004 -16.919397 172.628728 37.731194 -177.640393 -0.000003 -0.000002 -18.035904 -32.166066 42.281361 -210.660178
26.496801 39.667801 9.381802 1.769349 -2.001308 11.123879 -0.128500 0.160400 6.566000 -3.660361 2.839121 0.442158 -0.000000 -0.000001 3.554800 2.192119 -10.088316 -1.268176 0.000001 0.000000 8.268001 -45.699515 8.675329 6.245801 0.000001 0.000004 2.173896 -2.324518 -0.826037 -7.219516 2.057503 0.117599 5.946315 -27.539528 17.399579 -23.506344 4.957697 0.000002 0.000000 -5.786418 -15.511858 -154.049275 -0.000003 0.000006 -8.465496 -103.228037 -161.165021 -156.829954 0.000005 0.000006 -14.594893 -122.913106 -153.127377 -125.319273 -3.048501 -0.728797 6.604101 19.748819 -2.468066 -19.396055 -3.710296 0.000003 -0.000002 37.673210 -11.721569 146.949252 -0.000002 0.000006 -10.450903 -98.763115 -69.055514 -62.825378 0.000004 -0.000003 -12.539199 304.932921 -12.212003 15.363095 2.442600 -0.601398 -2.767503 129.516069 -8.200529 99.897261 0.000001 -0.000003 -17.033709 -176.912076 53.377662 167.137379 -0.000001 -0.000001 -19.318800 -133.077999 118.852012 388.567331 -3.126195 -0.601406 -2.283499 -134.125900 -20.075548 -99.475729 0.000001 -0.000003 -16.919397 172.643823 37.738680 -177.688136 -0.000001 -0.000002 -18.035900 -32.105871 42.286207 -210.670232
26.502705 39.667404 9.381798 1.742222 -2.037385 11.163704 -0.128498 0.160407 6.566005 -3.627044 2.857622 0.405431 -0.000003 0.000002 3.554805 2.180428 -10.088483 -1.270795 0.000001 -0.000002 8.267996 -45.741917 8.664000 6.287567 -0.000001 0.000002 2.173893 -2.317155 -0.874189 -7.247916 2.057504 0.117596 5.946301 -27.502966 17.400470 -23.544796 4.957693 0.000005 -0.000006 -5.795943 -15.599549 -154.183393 -0.000007 0.000006 -8.465492 -103.137571 -161.334560 -156.693050 -0.000001 0.000005 -14.594901 -123.041787 -153.102023 -125.305407 -3.048504 -0.728800 6.604095 19.740188 -2.492129 -19.369418 -3.710294 0.000001 -0.000009 37.610543 -11.666124 146.820804 0.000006 0.000007 -10.450900 -99.118810 -69.061839 -63.099603 0.000007 0.000003 -12.539199 305.046138 -12.253483 15.382899 2.442600 -0.601393 -2.767497 129.536013 -8.232475 99.898354 -0.000001 0.000004 -17.033707 -176.757646 53.254053 167.085825 -0.000001 -0.000002 -19.318806 -133.049599 119.066398 388.643528 -3.126194 -0.601393 -2.283494 -134.078990 -20.152769 -99.426825 0.000000 0.000002 -16.919399 172.619630 37.747532 -177.717793 -0.000002 0.000000 -18.035898 -32.062923 42.289157 -210.678319
26.508202 39.667702 9.381794 1.708727 -2.071340 11.206491 -0.128501 0.160401 6.566007 -3.587646 2.880688 0.369066 0.000004 0.000006 3.554808 2.157665 -10.092559 -1.276365 0.000001 -0.000009 8.267995 -45.773448 8.656560 6.321908 0.000001 0.000000 2.173890 -2.302369 -0.917352 -7.262950 2.057504 0.117598 5.946305 -27.455754 17.400219 -23.589824 4.957689 0.000006 0.000005 -5.841327 -15.609941 -154.201028 0.000001 -0.000012 -8.465494 -103.085887 -161.405430 -156.670333 0.000000 0.000004 -14.594898 -123.168829 -153.078131 -125.291624 -3.048501 -0.728807 6.604100 19.717788 -2.525116 -19.344096 -3.710295 0.000005 -0.000005 37.577997 -11.598055 146.690115 0.000007 0.000004 -10.450900 -99.413062 -69.053561 -63.318265 0.000007 0.000003 -12.539191 305.152662 -12.293807 15.394338 2.442592 -0.601395 -2.767498 129.559755 -8.264534 99.907697 0.000001 -0.000007 -17.033714 -176.695232 53.195446 167.069337 -0.000006 0.000001 -19.318804 -133.038766 119.179561 388.697760 -3.126196 -0.601401 -2.283501 -134.025537 -20.237651 -99.371616 -0.000000 0.000003 -16.919397 172.556752 37.758310 -177.730087 -0.000003 0.000002 -18.035896 -32.037084 42.290182 -210.684507
26.513500 39.668705 9.381603 1.670236 -2.103024 11.251473 -0.128503 0.160394 6.566013 -3.543258 2.907099 0.333125 0.000004 0.000003 3.554806 2.125424 -10.099860 -1.284344 -0.000003 0.000002 8.268003 -45.796347 8.652857 6.350225 0.000002 0.000005 2.173901 -2.280664 -0.955359 -7.267013 2.057503 0.117596 5.946310 -27.400521 17.399241 -23.639500 4.957694 -0.000001 -0.000001 -5.875684 -15.616048 -154.217789 -0.000001 0.000013 -8.465498 -103.028377 -161.480780 -156.644501 -0.000001 0.000007 -14.594900 -123.293876 -153.055619 -125.277281 -3.048505 -0.728798 6.604104 19.688101 -2.563602 -19.321096 -3.710286 0.000005 -0.000007 37.573571 -11.521639 146.561393 0.000003 0.000005 -10.450896 -99.647426 -69.029355 -63.484074 -0.000000 -0.000005 -12.539199 305.256945 -12.330442 15.400106 2.442595 -0.601398 -2.767490 129.586297 -8.296060 99.925046 -0.000001 0.000004 -17.033710 -176.683279 53.174187 167.068900 -0.000002 -0.000000 -19.318804 -133.040105 119.235377 388.735545 -3.126198 -0.601401 -2.283491 -133.966470 -20.329952 -99.310677 0.000001 -0.000001 -16.919399 172.457291 37.771305 -177.726139 -0.000004 -0.000001 -18.035900 -32.027491 42.289437 -210.688660
26.518303 39.670197 9.381409 1.627903 -2.132254 11.298006 -0.128499 0.160397 6.566007 -3.495253 2.935162 0.297261 0.000000 0.000006 3.554806 2.086547 -10.109019 -1.293902 -0.000003 -0.000008 8.268002 -45.812705 8.652537 6.374096 -0.000001 0.000002 2.173895 -2.253786 -0.988187 -7.262638 2.057497 0.117598 5.946310 -27.339994 17.397735 -23.692236 4.957695 0.000003 -0.000001 -5.899097 -15.617557 -154.232775 -0.000002 -0.000002 -8.465498 -102.967390 -161.558043 -156.617453 0.000000 -0.000000 -14.594903 -123.416259 -153.034268 -125.261585 -3.048504 -0.728802 6.604098 19.658215 -2.603882 -19.300369 -3.710299 -0.000001 -0.000006 37.592340 -11.441929 146.438764 0.000003 0.000007 -10.450902 -99.826131 -68.988695 -63.602004 0.000009 -0.000003 -12.539191 305.363824 -12.361178 15.403202 2.442594 -0.601403 -2.767503 129.614219 -8.327116 99.949812 -0.000001 -0.000009 -17.033705 -176.695587 53.172459 167.073571 -0.000001 -0.000000 -19.318802 -133.048260 119.262480 388.759450 -3.126197 -0.601405 -2.283494 -133.903181 -20.428850 -99.244739 -0.000000 0.000000 -16.919392 172.324894 37.786270 -177.707548 -0.000004 -0.000003 -18.035898 -32.032846 42.287013 -210.690859
26.522699 39.672401 9.381096 1.583293 -2.159453 11.345164 -0.128500 0.160402 6.566001 -3.445211 2.963471 0.261270 0.000005 0.000002 3.554802 2.044401 -10.118803 -1.304021 -0.000001 0.000001 8.268000 -45.824590 8.655173 6.395019 0.000001 0.000007 2.173899 -2.224148 -1.016108 -7.252890 2.057504 0.117602 5.946304 -27.277489 17.395201 -23.745998 4.957697 0.000005 -0.000002 -5.841834 -15.737657 -154.131169 -0.000008 0.000004 -8.465494 -102.859125 -161.510779 -156.468514 0.000004 0.000010 -14.594896 -123.534749 -153.013887 -125.243703 -3.048500 -0.728796 6.604102 19.634547 -2.642548 -19.280651 -3.710296 0.000000 -0.000007 37.628202 -11.363684 146.325451 0.000007 0.000006 -10.450902 -99.953145 -68.932031 -63.676180 -0.000002 0.000000 -12.539187 305.476358 -12.384847 15.406514 2.442596 -0.601404 -2.767505 129.642236 -8.357955 99.980698 0.000001 -0.000004 -17.033703 -176.716378 53.179764 167.077055 -0.000003 0.000004 -19.318810 -133.060076 119.277369 388.771799 -3.126196 -0.601403 -2.283500 -133.837215 -20.532904 -99.174927 0.000000 -0.000002 -16.919395 172.164945 37.802730 -177.676347 -0.000002 0.000002 -18.035900 -32.051298 42.283092 -210.691173
26.526701 39.674904 9.380802 1.538164 -2.184504 11.391921 -0.128500 0.160397 6.565997 -3.394481 2.990482 0.224216 -0.000000 0.000005 3.554808 2.002565 -10.127663 -1.313644 0.000004 0.000000 8.268001 -45.833868 8.659783 6.415021 0.000004 0.000003 2.173896 -2.194295 -1.039702 -7.240458 2.057506 0.117603 5.946307 -27.216142 17.391333 -23.798761 4.957692 0.000007 -0.000004 -5.852842 -15.723857 -154.144665 -0.000005 0.000005 -8.465500 -102.804544 -161.588151 -156.451261 -0.000003 0.000005 -14.594896 -123.647475 -152.993710 -125.222612 -3.048499 -0.728800 6.604101 19.624231 -2.675468 -19.260416 -3.710297 0.000003 -0.000007 37.673360 -11.292246 146.224433 0.000011 0.000012 -10.450907 -100.033653 -68.860669 -63.711240 -0.000000 -0.000002 -12.539199 305.596952 -12.400863 15.412375 2.442593 -0.601405 -2.767510 129.669010 -8.388633 100.016038 -0.000001 -0.000003 -17.033703 -176.738849 53.191082 167.077929 -0.000003 -0.000002 -19.318802 -133.074188 119.288065 388.775023 -3.126195 -0.601405 -2.283501 -133.770471 -20.640386 -99.102452 0.000000 0.000004 -16.919399 171.983644 37.820168 -177.634779 -0.000003 0.000002 -18.035898 -32.080825 42.277850 -210.689903
